<?xml version="1.0" encoding="UTF-8" standalone="no"?>
<!-- Created with Inkscape (http://www.inkscape.org/) -->

<svg
   width="32"
   height="32"
   viewBox="0 0 8.4666662 8.4666662"
   version="1.1"
   id="svg363"
   sodipodi:docname="favicon.svg"
   inkscape:version="1.2.2 (b0a8486541, 2022-12-01)"
   xmlns:inkscape="http://www.inkscape.org/namespaces/inkscape"
   xmlns:sodipodi="http://sodipodi.sourceforge.net/DTD/sodipodi-0.dtd"
   xmlns="http://www.w3.org/2000/svg"
   xmlns:svg="http://www.w3.org/2000/svg">
  <sodipodi:namedview
     id="namedview365"
     pagecolor="#ffffff"
     bordercolor="#000000"
     borderopacity="0.25"
     inkscape:showpageshadow="2"
     inkscape:pageopacity="0.0"
     inkscape:pagecheckerboard="0"
     inkscape:deskcolor="#d1d1d1"
     inkscape:document-units="mm"
     showgrid="false"
     inkscape:zoom="3.8282724"
     inkscape:cx="76.274615"
     inkscape:cy="78.233723"
     inkscape:window-width="1452"
     inkscape:window-height="752"
     inkscape:window-x="192"
     inkscape:window-y="1443"
     inkscape:window-maximized="0"
     inkscape:current-layer="layer1" />
  <defs
     id="defs360" />
  <g
     inkscape:label="Layer 1"
     inkscape:groupmode="layer"
     id="layer1"
     transform="translate(-6.2971755,-3.9688045)">
    <path
       d="m 6.2974001,9.2801023 1.59e-4,-1.274354 0.70539,-1.077254 c 0.653018,-0.997272 0.712319,-1.077352 0.798728,-1.078587 0.08708,-0.0012 3.4603469,0.354455 3.9615029,0.417727 0.213808,0.02699 0.286109,0.06228 1.237913,0.604118 0.919508,0.523455 1.015712,0.58625 1.064748,0.694994 0.04643,0.102958 0.09859,0.141531 0.375915,0.27798 0.177102,0.08714 0.322006,0.163247 0.322006,0.16913 0,0.0059 -0.02764,0.06486 -0.06143,0.131049 -0.07677,0.150421 -0.149565,0.216926 -0.31149,0.284583 -0.231691,0.09681 -0.41106,0.06781 -1.248324,-0.201805 l -0.779114,-0.25089 -0.514762,0.347375 c -0.283119,0.191056 -0.571848,0.388729 -0.64162,0.439272 -0.125766,0.0911 -0.129091,0.09921 -0.385469,0.939986 l -0.25861,0.8480897 -0.332497,3.31e-4 -0.3324969,3.44e-4 V 9.6925653 8.8329393 h -1.215075 -1.215079 l -0.07001,0.23518 c -0.03851,0.12935 -0.154171,0.512532 -0.257032,0.851517 l -0.187019,0.6163347 -0.328239,0.0092 -0.328239,0.0092 1.59e-4,-1.2743547 z m 2.031349,0.9499077 -0.125558,-0.3221767 0.333346,-0.44055 c 0.183341,-0.242303 0.337479,-0.436419 0.34253,-0.431367 0.0096,0.0096 0.240349,1.4375847 0.240349,1.4875217 0,0.01581 -0.14965,0.02875 -0.332555,0.02875 H 8.4543061 Z M 11.74637,9.9926203 c -0.11223,-0.307763 -0.204236,-0.575125 -0.204458,-0.594138 -7.36e-4,-0.06135 0.739192,-1.10199 0.747903,-1.05188 0.0046,0.02663 0.07396,0.486333 0.154074,1.021572 0.08011,0.535239 0.153802,1.0206027 0.163755,1.0785877 l 0.0181,0.105426 h -0.337658 -0.337658 z"
       style="fill:#164863;fill-opacity:1;stroke-width:0.0324387"
       id="path353" />
  </g>
</svg>
