<?xml version="1.0" encoding="UTF-8" standalone="no"?>
<!-- Created with Inkscape (http://www.inkscape.org/) -->

<svg
   width="69.056252mm"
   height="38.372265mm"
   viewBox="0 0 69.056252 38.372265"
   version="1.1"
   id="svg363"
   inkscape:version="1.2.2 (b0a8486541, 2022-12-01)"
   sodipodi:docname="logo.svg"
   xmlns:inkscape="http://www.inkscape.org/namespaces/inkscape"
   xmlns:sodipodi="http://sodipodi.sourceforge.net/DTD/sodipodi-0.dtd"
   xmlns="http://www.w3.org/2000/svg"
   xmlns:svg="http://www.w3.org/2000/svg">
  <sodipodi:namedview
     id="namedview365"
     pagecolor="#ffffff"
     bordercolor="#000000"
     borderopacity="0.25"
     inkscape:showpageshadow="2"
     inkscape:pageopacity="0.0"
     inkscape:pagecheckerboard="0"
     inkscape:deskcolor="#d1d1d1"
     inkscape:document-units="mm"
     showgrid="false"
     inkscape:zoom="0.75722503"
     inkscape:cx="86.500046"
     inkscape:cy="66.690875"
     inkscape:window-width="1452"
     inkscape:window-height="752"
     inkscape:window-x="150"
     inkscape:window-y="1325"
     inkscape:window-maximized="0"
     inkscape:current-layer="layer1" />
  <defs
     id="defs360" />
  <g
     inkscape:label="Layer 1"
     inkscape:groupmode="layer"
     id="layer1"
     transform="translate(-6.2971755,-3.9688045)">
    <path
       d="m 6.2983675,31.946894 0.0013,-10.394151 5.7534405,-8.786516 c 5.326277,-8.1341599 5.809964,-8.7873239 6.514754,-8.7973959 0.710281,-0.01015 28.223977,2.891079 32.311607,3.407152 1.74391,0.220174 2.33362,0.507963 10.09692,4.9274269 7.49988,4.269511 8.28456,4.781697 8.68452,5.668659 0.37868,0.839761 0.80415,1.15438 3.06611,2.267315 1.44452,0.71074 2.62641,1.33151 2.62641,1.379492 0,0.04798 -0.22546,0.528981 -0.50102,1.068887 -0.62618,1.226894 -1.21991,1.769341 -2.54064,2.321174 -1.88976,0.789593 -3.35277,0.553082 -10.18183,-1.646005 l -6.35477,-2.046356 -4.19861,2.83333 c -2.30923,1.558333 -4.66422,3.170629 -5.23331,3.582879 -1.0258,0.74308 -1.05292,0.809215 -3.14404,7.666911 l -2.10933,6.917364 -2.71198,0.0027 -2.71197,0.0028 v -7.011458 -7.011458 h -9.910675 -9.910672 l -0.571047,1.918229 c -0.314077,1.055026 -1.25748,4.180417 -2.096453,6.945312 l -1.525402,5.027084 -2.6772525,0.0754 -2.677252,0.0754 0.0013,-10.394153 z m 16.5685015,7.747833 -1.024096,-2.627807 2.718903,-3.593309 c 1.495398,-1.976321 2.752614,-3.559603 2.793812,-3.518402 0.07849,0.07849 1.960383,11.725529 1.960383,12.132833 0,0.128972 -1.220605,0.234493 -2.712453,0.234493 h -2.712456 z m 27.87549,-1.936255 c -0.91539,-2.510234 -1.66583,-4.690946 -1.66764,-4.846023 -0.006,-0.500428 6.02915,-8.98828 6.1002,-8.579562 0.0378,0.21717 0.60326,3.966731 1.25669,8.332356 0.65343,4.365625 1.25447,8.324453 1.33565,8.797396 l 0.14759,0.859896 h -2.75407 -2.75408 z"
       style="fill:#164863;fill-opacity:1;stroke-width:0.264583"
       id="path353" />
  </g>
</svg>
